<svg width="16" height="16" viewBox="0 0 16 16" fill="none" xmlns="http://www.w3.org/2000/svg">
<path d="M11.3337 10.1629V14.7439C11.3337 14.928 11.1844 15.0773 11.0003 15.0773C10.9399 15.0773 10.8807 15.0609 10.8289 15.0298L8.00033 13.3327L5.17183 15.0298C5.01397 15.1245 4.80921 15.0733 4.71449 14.9155C4.68341 14.8636 4.66699 14.8043 4.66699 14.7439V10.1629C3.44771 9.18555 2.66699 7.68362 2.66699 5.99935C2.66699 3.05383 5.05481 0.666016 8.00033 0.666016C10.9459 0.666016 13.3337 3.05383 13.3337 5.99935C13.3337 7.68362 12.5529 9.18555 11.3337 10.1629ZM6.00033 10.945V12.9777L8.00033 11.7778L10.0003 12.9777V10.945C9.38273 11.195 8.70759 11.3327 8.00033 11.3327C7.29306 11.3327 6.61795 11.195 6.00033 10.945ZM8.00033 9.99935C10.2095 9.99935 12.0003 8.20848 12.0003 5.99935C12.0003 3.79021 10.2095 1.99935 8.00033 1.99935C5.79119 1.99935 4.00033 3.79021 4.00033 5.99935C4.00033 8.20848 5.79119 9.99935 8.00033 9.99935Z" fill="#757C86"/>
</svg>
