<svg width="16" height="16" viewBox="0 0 16 16" fill="none" xmlns="http://www.w3.org/2000/svg">
<path d="M5.99992 0.666016V1.99935H9.99992V0.666016H11.3333V1.99935H13.9999C14.3681 1.99935 14.6666 2.29783 14.6666 2.66602V13.3327C14.6666 13.7009 14.3681 13.9993 13.9999 13.9993H1.99992C1.63173 13.9993 1.33325 13.7009 1.33325 13.3327V2.66602C1.33325 2.29783 1.63173 1.99935 1.99992 1.99935H4.66658V0.666016H5.99992ZM13.3333 7.33268H2.66659V12.666H13.3333V7.33268ZM4.66658 3.33268H2.66659V5.99935H13.3333V3.33268H11.3333V4.66602H9.99992V3.33268H5.99992V4.66602H4.66658V3.33268Z" fill="#757C86"/>
</svg>
