<svg width="34" height="33" viewBox="0 0 34 33" fill="none" xmlns="http://www.w3.org/2000/svg">
<rect width="34" height="33" rx="16.5" fill="url(#paint0_linear_1491_32313)"/>
<g clip-path="url(#clip0_1491_32313)">
<path d="M15.5007 11H19.5007L20.834 12.3333H23.5007C23.6775 12.3333 23.847 12.4036 23.9721 12.5286C24.0971 12.6536 24.1673 12.8232 24.1673 13V22.3333C24.1673 22.5101 24.0971 22.6797 23.9721 22.8047C23.847 22.9298 23.6775 23 23.5007 23H11.5007C11.3238 23 11.1543 22.9298 11.0292 22.8047C10.9042 22.6797 10.834 22.5101 10.834 22.3333V13C10.834 12.8232 10.9042 12.6536 11.0292 12.5286C11.1543 12.4036 11.3238 12.3333 11.5007 12.3333H14.1673L15.5007 11ZM17.5007 21.6667C18.5615 21.6667 19.5789 21.2452 20.3291 20.4951C21.0792 19.7449 21.5007 18.7275 21.5007 17.6667C21.5007 16.6058 21.0792 15.5884 20.3291 14.8382C19.5789 14.0881 18.5615 13.6667 17.5007 13.6667C16.4398 13.6667 15.4224 14.0881 14.6722 14.8382C13.9221 15.5884 13.5007 16.6058 13.5007 17.6667C13.5007 18.7275 13.9221 19.7449 14.6722 20.4951C15.4224 21.2452 16.4398 21.6667 17.5007 21.6667ZM17.5007 20.3333C16.7934 20.3333 16.1151 20.0524 15.615 19.5523C15.1149 19.0522 14.834 18.3739 14.834 17.6667C14.834 16.9594 15.1149 16.2811 15.615 15.781C16.1151 15.281 16.7934 15 17.5007 15C18.2079 15 18.8862 15.281 19.3863 15.781C19.8864 16.2811 20.1673 16.9594 20.1673 17.6667C20.1673 18.3739 19.8864 19.0522 19.3863 19.5523C18.8862 20.0524 18.2079 20.3333 17.5007 20.3333Z" fill="white"/>
</g>
<defs>
<linearGradient id="paint0_linear_1491_32313" x1="17.279" y1="-5.60576" x2="27.2753" y2="33.6249" gradientUnits="userSpaceOnUse">
<stop stop-color="#E4669E"/>
<stop offset="1" stop-color="#DFABFF"/>
</linearGradient>
<clipPath id="clip0_1491_32313">
<rect width="16" height="16" fill="white" transform="translate(9.5 9)"/>
</clipPath>
</defs>
</svg>
