<svg width="25" height="24" viewBox="0 0 25 24" fill="none" xmlns="http://www.w3.org/2000/svg">
<path d="M12.5 2C6.98 2 2.5 6.48 2.5 12C2.5 17.52 6.98 22 12.5 22C18.02 22 22.5 17.52 22.5 12C22.5 6.48 18.02 2 12.5 2ZM12.5 20C8.09 20 4.5 16.41 4.5 12C4.5 7.59 8.09 4 12.5 4C16.91 4 20.5 7.59 20.5 12C20.5 16.41 16.91 20 12.5 20ZM16.38 8.29L10.5 14.17L8.62 12.29C8.43302 12.103 8.17943 11.998 7.915 11.998C7.65057 11.998 7.39698 12.103 7.21 12.29C7.02302 12.477 6.91798 12.7306 6.91798 12.995C6.91798 13.2594 7.02302 13.513 7.21 13.7L9.8 16.29C10.19 16.68 10.82 16.68 11.21 16.29L17.8 9.7C17.8927 9.60749 17.9663 9.4976 18.0164 9.37662C18.0666 9.25565 18.0924 9.12597 18.0924 8.995C18.0924 8.86403 18.0666 8.73435 18.0164 8.61338C17.9663 8.4924 17.8927 8.38251 17.8 8.29C17.41 7.9 16.77 7.9 16.38 8.29Z" fill="#757C86"/>
</svg>
