<svg width="18" height="18" viewBox="0 0 18 18" fill="none" xmlns="http://www.w3.org/2000/svg">
<path d="M7.49849 12.5277C7.40728 12.5278 7.31696 12.5099 7.2327 12.475C7.14844 12.44 7.07191 12.3888 7.00752 12.3242L4.34096 9.6577C4.27588 9.59336 4.22416 9.51678 4.18877 9.43238C4.15338 9.34798 4.13503 9.25742 4.13477 9.1659C4.13451 9.07438 4.15234 8.98371 4.18724 8.89911C4.22214 8.81451 4.27342 8.73764 4.33813 8.67292C4.40284 8.60821 4.47971 8.55692 4.56431 8.52202C4.64891 8.48711 4.73958 8.46928 4.8311 8.46954C4.92262 8.4698 5.01318 8.48814 5.09758 8.52353C5.18199 8.55891 5.25856 8.61063 5.32291 8.67571L7.49849 10.8513L12.6743 5.67549C12.8046 5.54572 12.9811 5.47295 13.165 5.47314C13.3489 5.47334 13.5252 5.54649 13.6553 5.67654C13.7853 5.80659 13.8584 5.98291 13.8586 6.16682C13.8588 6.35073 13.786 6.52721 13.6562 6.65751L7.98947 12.3243C7.92507 12.3889 7.84854 12.4401 7.76428 12.475C7.68002 12.5099 7.58969 12.5278 7.49849 12.5277Z" fill="white"/>
</svg>
