<svg width="14" height="24" viewBox="0 0 14 24" fill="none" xmlns="http://www.w3.org/2000/svg">
<path d="M7.102 17.126C6.39267 17.126 5.77667 16.965 5.254 16.643C4.73133 16.321 4.32767 15.8637 4.043 15.271C3.75833 14.6783 3.616 13.9807 3.616 13.178C3.616 12.3333 3.76067 11.617 4.05 11.029C4.344 10.441 4.74767 9.993 5.261 9.685C5.779 9.37233 6.36933 9.216 7.032 9.216C7.66667 9.216 8.20567 9.33967 8.649 9.587C9.09233 9.82967 9.43067 10.154 9.664 10.56C9.902 10.966 10.028 11.414 10.042 11.904H8.761C8.75167 11.7173 8.712 11.533 8.642 11.351C8.572 11.169 8.467 11.0057 8.327 10.861C8.187 10.7117 8.00733 10.5927 7.788 10.504C7.57333 10.4107 7.31433 10.364 7.011 10.364C6.30633 10.3593 5.786 10.6043 5.45 11.099C5.114 11.5937 4.946 12.2727 4.946 13.136C4.946 14.06 5.13267 14.7647 5.506 15.25C5.87933 15.7353 6.43933 15.978 7.186 15.978C7.47533 15.978 7.73433 15.9127 7.963 15.782C8.19167 15.6513 8.37367 15.481 8.509 15.271C8.649 15.061 8.72367 14.837 8.733 14.599H10.014C10 15.0797 9.86467 15.5113 9.608 15.894C9.35133 16.2767 9.006 16.5777 8.572 16.797C8.138 17.0163 7.648 17.126 7.102 17.126Z" fill="#585E6C"/>
<circle cx="7" cy="13" r="6.75" stroke="#585E6C" stroke-width="0.5"/>
</svg>
