<svg width="57" height="56" viewBox="0 0 57 56" fill="none" xmlns="http://www.w3.org/2000/svg">
<rect x="0.5" width="56" height="56" rx="28" fill="#F9EEFF"/>
<path d="M20.0003 29.3333C17.067 29.3333 14.667 31.7333 14.667 34.6667C14.667 37.6 17.067 40 20.0003 40C22.9337 40 25.3337 37.6 25.3337 34.6667C25.3337 31.7333 22.9337 29.3333 20.0003 29.3333ZM28.0003 16C25.067 16 22.667 18.4 22.667 21.3333C22.667 24.2667 25.067 26.6667 28.0003 26.6667C30.9337 26.6667 33.3337 24.2667 33.3337 21.3333C33.3337 18.4 30.9337 16 28.0003 16ZM36.0003 29.3333C33.067 29.3333 30.667 31.7333 30.667 34.6667C30.667 37.6 33.067 40 36.0003 40C38.9337 40 41.3337 37.6 41.3337 34.6667C41.3337 31.7333 38.9337 29.3333 36.0003 29.3333Z" fill="#CA9AE6"/>
</svg>
