<svg width="12" height="7" viewBox="0 0 12 7" fill="none" xmlns="http://www.w3.org/2000/svg">
<path d="M2.11967 0.288115L5.99967 4.16812L9.87967 0.288115C9.97225 0.195533 10.0822 0.122093 10.2031 0.0719881C10.3241 0.0218831 10.4537 -0.00390625 10.5847 -0.00390625C10.7156 -0.00390625 10.8452 0.0218831 10.9662 0.0719881C11.0872 0.122093 11.1971 0.195533 11.2897 0.288115C11.3823 0.380697 11.4557 0.490607 11.5058 0.611571C11.5559 0.732535 11.5817 0.862184 11.5817 0.993115C11.5817 1.12405 11.5559 1.25369 11.5058 1.37466C11.4557 1.49562 11.3823 1.60553 11.2897 1.69811L6.69967 6.28812C6.60716 6.38082 6.49727 6.45437 6.37629 6.50455C6.25532 6.55473 6.12564 6.58056 5.99467 6.58056C5.8637 6.58056 5.73402 6.55473 5.61305 6.50455C5.49207 6.45437 5.38218 6.38082 5.28967 6.28812L0.69967 1.69811C0.606967 1.6056 0.533419 1.49571 0.483238 1.37474C0.433056 1.25377 0.407227 1.12408 0.407227 0.993115C0.407227 0.862146 0.433056 0.732464 0.483238 0.61149C0.533419 0.490517 0.606967 0.380628 0.69967 0.288115C1.08967 -0.0918855 1.72967 -0.101885 2.11967 0.288115Z" fill="black"/>
</svg>
