<svg width="57" height="56" viewBox="0 0 57 56" fill="none" xmlns="http://www.w3.org/2000/svg">
<rect x="0.5" width="56" height="56" rx="28" fill="#F9EEFF"/>
<path d="M27.9997 19.8654C28.3674 19.8654 28.7315 19.9378 29.0712 20.0785C29.4109 20.2192 29.7196 20.4255 29.9796 20.6855C30.2396 20.9455 30.4458 21.2541 30.5865 21.5939C30.7273 21.9336 30.7997 22.2977 30.7997 22.6654C30.7997 23.0331 30.7273 23.3972 30.5865 23.7369C30.4458 24.0766 30.2396 24.3853 29.9796 24.6453C29.7196 24.9053 29.4109 25.1115 29.0712 25.2522C28.7315 25.3929 28.3674 25.4654 27.9997 25.4654C27.2571 25.4654 26.5449 25.1704 26.0198 24.6453C25.4947 24.1202 25.1997 23.408 25.1997 22.6654C25.1997 21.9228 25.4947 21.2106 26.0198 20.6855C26.5449 20.1604 27.2571 19.8654 27.9997 19.8654ZM27.9997 31.8654C31.9597 31.8654 36.133 33.812 36.133 34.6654V36.132H19.8663V34.6654C19.8663 33.812 24.0397 31.8654 27.9997 31.8654ZM27.9997 17.332C25.053 17.332 22.6663 19.7187 22.6663 22.6654C22.6663 25.612 25.053 27.9987 27.9997 27.9987C30.9463 27.9987 33.333 25.612 33.333 22.6654C33.333 19.7187 30.9463 17.332 27.9997 17.332ZM27.9997 29.332C24.4397 29.332 17.333 31.1187 17.333 34.6654V38.6654H38.6663V34.6654C38.6663 31.1187 31.5597 29.332 27.9997 29.332Z" fill="#CA9AE6"/>
</svg>
