<svg width="57" height="56" viewBox="0 0 57 56" fill="none" xmlns="http://www.w3.org/2000/svg">
<rect x="0.5" width="56" height="56" rx="28" fill="#F9EEFF"/>
<path d="M32.667 26.668C33.7716 26.668 34.667 25.7725 34.667 24.668C34.667 23.5634 33.7716 22.668 32.667 22.668C31.5624 22.668 30.667 23.5634 30.667 24.668C30.667 25.7725 31.5624 26.668 32.667 26.668Z" fill="#CA9AE6"/>
<path d="M23.333 26.668C24.4376 26.668 25.333 25.7725 25.333 24.668C25.333 23.5634 24.4376 22.668 23.333 22.668C22.2284 22.668 21.333 23.5634 21.333 24.668C21.333 25.7725 22.2284 26.668 23.333 26.668Z" fill="#CA9AE6"/>
<path d="M27.987 14.668C20.627 14.668 14.667 20.6413 14.667 28.0013C14.667 35.3613 20.627 41.3346 27.987 41.3346C35.3603 41.3346 41.3337 35.3613 41.3337 28.0013C41.3337 20.6413 35.3603 14.668 27.987 14.668ZM28.0003 38.668C22.107 38.668 17.3337 33.8946 17.3337 28.0013C17.3337 22.108 22.107 17.3346 28.0003 17.3346C33.8937 17.3346 38.667 22.108 38.667 28.0013C38.667 33.8946 33.8937 38.668 28.0003 38.668ZM28.0003 33.3346C26.027 33.3346 24.3337 32.2546 23.4003 30.668H21.1737C21.7094 32.0427 22.6477 33.2237 23.8657 34.0563C25.0838 34.889 26.5249 35.3344 28.0003 35.3344C29.4758 35.3344 30.9168 34.889 32.1349 34.0563C33.353 33.2237 34.2913 32.0427 34.827 30.668H32.6003C31.6803 32.2546 29.9737 33.3346 28.0003 33.3346Z" fill="#CA9AE6"/>
</svg>
