<svg width="91" height="45" viewBox="0 0 91 45" fill="none" xmlns="http://www.w3.org/2000/svg">
<path d="M2.38794 36V10.08H7.57194V20.412H23.6639V10.08H28.8479V36H23.6639V25.668H7.57194V36H2.38794ZM53.349 36L45.681 26.856H52.485L58.821 34.38V36H53.349ZM32.973 36V10.116H53.673C54.633 10.116 55.497 10.356 56.265 10.836C57.057 11.292 57.693 11.916 58.173 12.708C58.653 13.5 58.893 14.364 58.893 15.3V22.14C58.893 23.076 58.653 23.94 58.173 24.732C57.693 25.5 57.057 26.124 56.265 26.604C55.497 27.06 54.633 27.288 53.673 27.288L38.157 27.324V36H32.973ZM38.373 22.068H53.421C53.493 22.068 53.541 22.056 53.565 22.032C53.613 21.984 53.637 21.936 53.637 21.888V15.516C53.637 15.444 53.613 15.396 53.565 15.372C53.541 15.324 53.493 15.3 53.421 15.3H38.373C38.301 15.3 38.241 15.324 38.193 15.372C38.169 15.396 38.157 15.444 38.157 15.516V21.888C38.157 21.936 38.169 21.984 38.193 22.032C38.241 22.056 38.301 22.068 38.373 22.068Z" fill="#182233"/>
<rect x="65.4385" y="7.83984" width="14.9346" height="6.27735" transform="rotate(45 65.4385 7.83984)" fill="#E4669E"/>
<rect x="80.4404" y="22.8516" width="14.9346" height="6.27735" transform="rotate(45 80.4404 22.8516)" fill="#A9DEF9"/>
<rect width="14.9346" height="6.27735" transform="matrix(-0.707107 0.707107 0.707107 0.707107 71.5615 22.8398)" fill="#FCF6BD"/>
<rect x="90.6152" y="11.3203" width="14.9346" height="6.27735" transform="rotate(131.651 90.6152 11.3203)" fill="#E0ABFF"/>
</svg>
