<svg width="44" height="45" viewBox="0 0 44 45" fill="none" xmlns="http://www.w3.org/2000/svg">
<circle cx="18" cy="26.8789" r="18" fill="#FCF0F5"/>
<g clip-path="url(#clip0_441_14481)">
<path d="M29.4936 29.9439L27.125 27.5753V24.4375C27.1223 22.2691 26.3156 20.1787 24.8611 18.5706C23.4065 16.9625 21.4072 15.9508 19.25 15.7313V13.9375H17.5V15.7313C15.3428 15.9508 13.3435 16.9625 11.8889 18.5706C10.4344 20.1787 9.62771 22.2691 9.625 24.4375V27.5753L7.25637 29.9439C7.09227 30.1079 7.00005 30.3305 7 30.5625V33.1875C7 33.4196 7.09219 33.6421 7.25628 33.8062C7.42038 33.9703 7.64294 34.0625 7.875 34.0625H14V34.7424C13.981 35.8524 14.3722 36.9305 15.0988 37.7699C15.8254 38.6094 16.8362 39.1512 17.9375 39.2915C18.5458 39.3518 19.16 39.2842 19.7405 39.0929C20.3211 38.9016 20.8552 38.5909 21.3085 38.1808C21.7617 37.7707 22.1242 37.2703 22.3724 36.7117C22.6207 36.1531 22.7493 35.5488 22.75 34.9375V34.0625H28.875C29.1071 34.0625 29.3296 33.9703 29.4937 33.8062C29.6578 33.6421 29.75 33.4196 29.75 33.1875V30.5625C29.75 30.3305 29.6577 30.1079 29.4936 29.9439ZM21 34.9375C21 35.6337 20.7234 36.3014 20.2312 36.7937C19.7389 37.2859 19.0712 37.5625 18.375 37.5625C17.6788 37.5625 17.0111 37.2859 16.5188 36.7937C16.0266 36.3014 15.75 35.6337 15.75 34.9375V34.0625H21V34.9375ZM28 32.3125H8.75V30.9248L11.1186 28.5561C11.2827 28.3921 11.375 28.1695 11.375 27.9375V24.4375C11.375 22.581 12.1125 20.8005 13.4253 19.4878C14.738 18.175 16.5185 17.4375 18.375 17.4375C20.2315 17.4375 22.012 18.175 23.3247 19.4878C24.6375 20.8005 25.375 22.581 25.375 24.4375V27.9375C25.375 28.1695 25.4673 28.3921 25.6314 28.5561L28 30.9248V32.3125Z" fill="#893D5F"/>
</g>
<circle cx="34.5" cy="9.5" r="9.5" fill="#FF4B41"/>
<path d="M32.921 12.6142C33.054 11.9129 33.5255 11.4051 34.8918 10.5708C36.6329 9.49474 37.177 8.69674 37.177 7.63274C37.177 6.10929 36.0888 5.1662 34.5291 5.1662C32.8484 5.1662 31.6635 6.25438 31.6393 8.12847H32.8847C32.9331 6.87102 33.5497 6.26647 34.5049 6.26647C35.4117 6.26647 35.9316 6.78638 35.9316 7.59647C35.9316 8.27356 35.581 8.85393 34.0575 9.79702C32.1471 10.9819 31.6272 11.8162 31.6272 13.1341V13.7266H37.2011V12.6142H32.921Z" fill="white"/>
<defs>
<clipPath id="clip0_441_14481">
<rect width="24" height="24" fill="white" transform="translate(6 14.9375)"/>
</clipPath>
</defs>
</svg>
