<svg width="24" height="25" viewBox="0 0 24 25" fill="none" xmlns="http://www.w3.org/2000/svg">
<g clip-path="url(#clip0_441_14650)">
<path d="M23.4936 15.9439L21.125 13.5753V10.4375C21.1223 8.26911 20.3156 6.17874 18.8611 4.57061C17.4065 2.96248 15.4072 1.95082 13.25 1.73125V-0.0625H11.5V1.73125C9.34275 1.95082 7.34354 2.96248 5.88895 4.57061C4.43436 6.17874 3.62771 8.26911 3.625 10.4375V13.5753L1.25637 15.9439C1.09227 16.1079 1.00005 16.3305 1 16.5625V19.1875C1 19.4196 1.09219 19.6421 1.25628 19.8062C1.42038 19.9703 1.64294 20.0625 1.875 20.0625H8V20.7424C7.98097 21.8524 8.37223 22.9305 9.09881 23.7699C9.82539 24.6094 10.8362 25.1512 11.9375 25.2915C12.5458 25.3518 13.16 25.2842 13.7405 25.0929C14.3211 24.9016 14.8552 24.5909 15.3085 24.1808C15.7617 23.7707 16.1242 23.2703 16.3724 22.7117C16.6207 22.1531 16.7493 21.5488 16.75 20.9375V20.0625H22.875C23.1071 20.0625 23.3296 19.9703 23.4937 19.8062C23.6578 19.6421 23.75 19.4196 23.75 19.1875V16.5625C23.75 16.3305 23.6577 16.1079 23.4936 15.9439ZM15 20.9375C15 21.6337 14.7234 22.3014 14.2312 22.7937C13.7389 23.2859 13.0712 23.5625 12.375 23.5625C11.6788 23.5625 11.0111 23.2859 10.5188 22.7937C10.0266 22.3014 9.75 21.6337 9.75 20.9375V20.0625H15V20.9375ZM22 18.3125H2.75V16.9248L5.11862 14.5561C5.28273 14.3921 5.37495 14.1695 5.375 13.9375V10.4375C5.375 8.58099 6.1125 6.80051 7.42525 5.48775C8.73801 4.175 10.5185 3.4375 12.375 3.4375C14.2315 3.4375 16.012 4.175 17.3247 5.48775C18.6375 6.80051 19.375 8.58099 19.375 10.4375V13.9375C19.375 14.1695 19.4673 14.3921 19.6314 14.5561L22 16.9248V18.3125Z" fill="#893D5F"/>
</g>
<defs>
<clipPath id="clip0_441_14650">
<rect width="24" height="24" fill="white" transform="translate(0 0.9375)"/>
</clipPath>
</defs>
</svg>
