<svg width="10" height="10" viewBox="0 0 10 10" fill="none" xmlns="http://www.w3.org/2000/svg">
<path d="M5 10.0013C2.24186 10.0013 0 7.75915 0 5.00065C0 2.24215 2.24186 0 5 0C7.75814 0 10 2.24215 10 5.00065C10 7.75915 7.75814 10.0013 5 10.0013ZM5 0.697765C2.62791 0.697765 0.697674 2.62825 0.697674 5.00065C0.697674 7.37305 2.62791 9.30353 5 9.30353C7.37209 9.30353 9.30233 7.37305 9.30233 5.00065C9.30233 2.62825 7.37209 0.697765 5 0.697765Z" fill="#F6AF45"/>
<path d="M6.7255 6.82817C6.66504 6.82817 6.60457 6.81421 6.54876 6.777L5.1069 5.91642C4.74876 5.70244 4.48364 5.23261 4.48364 4.8186V2.91138C4.48364 2.72066 4.64178 2.5625 4.83248 2.5625C5.02318 2.5625 5.18132 2.72066 5.18132 2.91138V4.8186C5.18132 4.98607 5.32085 5.23261 5.46504 5.31634L6.9069 6.17692C7.07434 6.27461 7.1255 6.48859 7.02783 6.65605C6.95806 6.76769 6.84178 6.82817 6.7255 6.82817Z" fill="#F6AF45"/>
</svg>
