<svg width="16" height="16" viewBox="0 0 16 16" fill="none" xmlns="http://www.w3.org/2000/svg">
<path d="M8.00359 14.6693C4.32169 14.6693 1.33691 11.6845 1.33691 8.00258C1.33691 4.3207 4.32169 1.33594 8.00359 1.33594C11.6855 1.33594 14.6703 4.3207 14.6703 8.00258C14.6703 11.6845 11.6855 14.6693 8.00359 14.6693ZM8.00359 13.3359C10.9491 13.3359 13.3369 10.9481 13.3369 8.00258C13.3369 5.05708 10.9491 2.66927 8.00359 2.66927C5.05806 2.66927 2.67025 5.05708 2.67025 8.00258C2.67025 10.9481 5.05806 13.3359 8.00359 13.3359ZM6.00358 5.33594H10.0036L11.6703 7.66925L8.00306 11.3359L4.33691 7.66925L6.00358 5.33594ZM6.69026 6.66925L6.07691 7.52925L8.00306 9.45592L9.93026 7.52925L9.31693 6.66925H6.69026Z" fill="#757C86"/>
</svg>
