<svg width="16" height="16" viewBox="0 0 16 16" fill="none" xmlns="http://www.w3.org/2000/svg">
<path d="M8.00008 4.66603C10.9456 4.66603 13.3334 7.05382 13.3334 9.99935C13.3334 12.9449 10.9456 15.3327 8.00008 15.3327C5.05456 15.3327 2.66675 12.9449 2.66675 9.99935C2.66675 7.05382 5.05456 4.66603 8.00008 4.66603ZM8.00008 5.99936C5.79094 5.99936 4.00008 7.79022 4.00008 9.99935C4.00008 12.2085 5.79094 13.9994 8.00008 13.9994C10.2092 13.9994 12.0001 12.2085 12.0001 9.99935C12.0001 7.79022 10.2092 5.99936 8.00008 5.99936ZM8.00008 6.99935L8.88175 8.78582L10.8533 9.07228L9.42668 10.4629L9.76342 12.4264L8.00008 11.4994L6.23673 12.4264L6.57349 10.4629L5.14691 9.07228L7.11841 8.78582L8.00008 6.99935ZM12.0001 1.3327V3.3327L11.0911 4.09107C10.3537 3.7045 9.53508 3.45193 8.66748 3.36569L8.66675 1.33203L12.0001 1.3327ZM7.33342 1.33203L7.33321 3.36564C6.46568 3.45179 5.64705 3.70427 4.90969 4.09072L4.00008 3.3327V1.3327L7.33342 1.33203Z" fill="#757C86"/>
</svg>
