<svg width="36" height="37" viewBox="0 0 36 37" fill="none" xmlns="http://www.w3.org/2000/svg">
<circle cx="18" cy="18.4395" r="18" fill="#FCF0F5"/>
<path d="M27.8181 18.3779V17.0627L29.5131 15.6186C29.8256 15.3505 30.0306 14.9834 30.092 14.5823C30.1534 14.1812 30.0672 13.7719 29.8486 13.4267L27.7651 9.98842C27.6103 9.72734 27.3877 9.51048 27.1196 9.35961C26.8515 9.20874 26.5474 9.12916 26.2378 9.12885C26.0459 9.12742 25.855 9.15645 25.6728 9.2148L23.5274 9.91966C23.157 9.68001 22.7707 9.46464 22.3709 9.27498L21.9206 7.10884C21.8399 6.7131 21.6188 6.35761 21.296 6.1046C20.9732 5.8516 20.5693 5.71719 20.1549 5.72493H16.0232C15.6089 5.71719 15.205 5.8516 14.8822 6.1046C14.5594 6.35761 14.3383 6.7131 14.2575 7.10884L13.8073 9.27498C13.4046 9.4646 13.0153 9.67996 12.6419 9.91966L10.5407 9.18042C10.3565 9.13368 10.1657 9.11626 9.9757 9.12885C9.66607 9.12916 9.36196 9.20874 9.09388 9.35961C8.82581 9.51048 8.60319 9.72734 8.44838 9.98842L6.36485 13.4267C6.15878 13.7714 6.08221 14.1751 6.14825 14.5687C6.21428 14.9623 6.41882 15.3213 6.72682 15.5843L8.3954 17.0713V18.3865L6.72682 19.8306C6.41012 20.0953 6.19999 20.4608 6.13372 20.862C6.06746 21.2633 6.14935 21.6744 6.36485 22.0225L8.44838 25.4608C8.60319 25.7219 8.82581 25.9387 9.09388 26.0896C9.36196 26.2405 9.66607 26.3201 9.9757 26.3204C10.1676 26.3218 10.3584 26.2928 10.5407 26.2344L12.686 25.5296C13.0564 25.7692 13.4428 25.9846 13.8426 26.1742L14.2928 28.3404C14.3736 28.7361 14.5947 29.0916 14.9175 29.3446C15.2403 29.5976 15.6442 29.732 16.0585 29.7243H20.2256C20.6399 29.732 21.0438 29.5976 21.3666 29.3446C21.6894 29.0916 21.9105 28.7361 21.9913 28.3404L22.4415 26.1742C22.8442 25.9846 23.2335 25.7693 23.6069 25.5296L25.7434 26.2344C25.9257 26.2928 26.1165 26.3218 26.3084 26.3204C26.618 26.3201 26.9221 26.2405 27.1902 26.0896C27.4583 25.9387 27.6809 25.7219 27.8357 25.4608L29.8486 22.0225C30.0547 21.6778 30.1313 21.2741 30.0652 20.8805C29.9992 20.4869 29.7947 20.1279 29.4867 19.865L27.8181 18.3779ZM26.2378 24.6012L23.2096 23.6041C22.5007 24.1887 21.6906 24.6457 20.8171 24.9536L20.1903 28.0395H16.0232L15.3964 24.988C14.5298 24.6713 13.724 24.2151 13.0127 23.6385L9.9757 24.6012L7.89218 21.1629L10.2935 19.0999C10.1303 18.2101 10.1303 17.2992 10.2935 16.4095L7.89218 14.2863L9.9757 10.848L13.0039 11.8451C13.7127 11.2605 14.5229 10.8035 15.3964 10.4956L16.0232 7.40969H20.1903L20.8171 10.4612C21.6837 10.7779 22.4894 11.2341 23.2008 11.8107L26.2378 10.848L28.3213 14.2863L25.9199 16.3493C26.0832 17.2391 26.0832 18.15 25.9199 19.0398L28.3213 21.1629L26.2378 24.6012Z" fill="#893D5F"/>
<path d="M18 23.1895C16.9616 23.1895 15.9466 22.8815 15.0833 22.3047C14.2199 21.7278 13.547 20.9079 13.1496 19.9485C12.7523 18.9892 12.6483 17.9336 12.8509 16.9152C13.0535 15.8968 13.5535 14.9614 14.2877 14.2271C15.0219 13.4929 15.9574 12.9929 16.9758 12.7903C17.9942 12.5878 19.0498 12.6917 20.0091 13.0891C20.9684 13.4864 21.7883 14.1594 22.3652 15.0227C22.9421 15.8861 23.25 16.9011 23.25 17.9395C23.257 18.6308 23.126 19.3167 22.8647 19.9568C22.6033 20.5969 22.2169 21.1785 21.728 21.6674C21.239 22.1563 20.6575 22.5428 20.0174 22.8041C19.3772 23.0655 18.6914 23.1965 18 23.1895ZM18 14.4395C17.5374 14.4287 17.0775 14.5118 16.648 14.6839C16.2185 14.856 15.8283 15.1134 15.5011 15.4406C15.174 15.7678 14.9165 16.1579 14.7445 16.5874C14.5724 17.0169 14.4892 17.4769 14.5 17.9395C14.4892 18.402 14.5724 18.862 14.7445 19.2915C14.9165 19.721 15.174 20.1111 15.5011 20.4383C15.8283 20.7655 16.2185 21.0229 16.648 21.195C17.0775 21.3671 17.5374 21.4502 18 21.4395C18.4626 21.4502 18.9225 21.3671 19.352 21.195C19.7815 21.0229 20.1717 20.7655 20.4989 20.4383C20.826 20.1111 21.0835 19.721 21.2555 19.2915C21.4276 18.862 21.5108 18.402 21.5 17.9395C21.5108 17.4769 21.4276 17.0169 21.2555 16.5874C21.0835 16.1579 20.826 15.7678 20.4989 15.4406C20.1717 15.1134 19.7815 14.856 19.352 14.6839C18.9225 14.5118 18.4626 14.4287 18 14.4395Z" fill="#893D5F"/>
</svg>
