<svg width="28" height="29" viewBox="0 0 28 29" fill="none" xmlns="http://www.w3.org/2000/svg">
<path d="M23.8181 15.3779V14.0627L25.5131 12.6186C25.8256 12.3505 26.0306 11.9834 26.092 11.5823C26.1534 11.1812 26.0672 10.7719 25.8486 10.4267L23.7651 6.98842C23.6103 6.72734 23.3877 6.51048 23.1196 6.35961C22.8515 6.20874 22.5474 6.12916 22.2378 6.12885C22.0459 6.12742 21.855 6.15645 21.6728 6.2148L19.5274 6.91966C19.157 6.68001 18.7707 6.46464 18.3709 6.27498L17.9206 4.10884C17.8399 3.7131 17.6188 3.35761 17.296 3.1046C16.9732 2.8516 16.5693 2.71719 16.1549 2.72493H12.0232C11.6089 2.71719 11.205 2.8516 10.8822 3.1046C10.5594 3.35761 10.3383 3.7131 10.2575 4.10884L9.80727 6.27498C9.40463 6.4646 9.01532 6.67996 8.64191 6.91966L6.54073 6.18042C6.35647 6.13368 6.16567 6.11626 5.9757 6.12885C5.66607 6.12916 5.36196 6.20874 5.09388 6.35961C4.82581 6.51048 4.60319 6.72734 4.44838 6.98842L2.36485 10.4267C2.15878 10.7714 2.08221 11.1751 2.14825 11.5687C2.21428 11.9623 2.41882 12.3213 2.72682 12.5843L4.3954 14.0713V15.3865L2.72682 16.8306C2.41012 17.0953 2.19999 17.4608 2.13372 17.862C2.06746 18.2633 2.14935 18.6744 2.36485 19.0225L4.44838 22.4608C4.60319 22.7219 4.82581 22.9387 5.09388 23.0896C5.36196 23.2405 5.66607 23.3201 5.9757 23.3204C6.16759 23.3218 6.35843 23.2928 6.54073 23.2344L8.68605 22.5296C9.05644 22.7692 9.4428 22.9846 9.84258 23.1742L10.2928 25.3404C10.3736 25.7361 10.5947 26.0916 10.9175 26.3446C11.2403 26.5976 11.6442 26.732 12.0585 26.7243H16.2256C16.6399 26.732 17.0438 26.5976 17.3666 26.3446C17.6894 26.0916 17.9105 25.7361 17.9913 25.3404L18.4415 23.1742C18.8442 22.9846 19.2335 22.7693 19.6069 22.5296L21.7434 23.2344C21.9257 23.2928 22.1165 23.3218 22.3084 23.3204C22.618 23.3201 22.9221 23.2405 23.1902 23.0896C23.4583 22.9387 23.6809 22.7219 23.8357 22.4608L25.8486 19.0225C26.0547 18.6778 26.1313 18.2741 26.0652 17.8805C25.9992 17.4869 25.7947 17.1279 25.4867 16.865L23.8181 15.3779ZM22.2378 21.6012L19.2096 20.6041C18.5007 21.1887 17.6906 21.6457 16.8171 21.9536L16.1903 25.0395H12.0232L11.3964 21.988C10.5298 21.6713 9.72403 21.2151 9.0127 20.6385L5.9757 21.6012L3.89218 18.1629L6.29353 16.0999C6.13029 15.2101 6.13029 14.2992 6.29353 13.4095L3.89218 11.2863L5.9757 7.848L9.00387 8.84511C9.71274 8.2605 10.5229 7.80352 11.3964 7.49557L12.0232 4.40969H16.1903L16.8171 7.46119C17.6837 7.77788 18.4894 8.23407 19.2008 8.81073L22.2378 7.848L24.3213 11.2863L21.9199 13.3493C22.0832 14.2391 22.0832 15.15 21.9199 16.0398L24.3213 18.1629L22.2378 21.6012Z" fill="#893D5F"/>
<path d="M14 20.1895C12.9616 20.1895 11.9466 19.8815 11.0833 19.3047C10.2199 18.7278 9.54699 17.9079 9.14963 16.9485C8.75227 15.9892 8.64831 14.9336 8.85088 13.9152C9.05345 12.8968 9.55347 11.9614 10.2877 11.2271C11.0219 10.4929 11.9574 9.99291 12.9758 9.79033C13.9942 9.58776 15.0498 9.69173 16.0091 10.0891C16.9684 10.4864 17.7883 11.1594 18.3652 12.0227C18.9421 12.8861 19.25 13.9011 19.25 14.9395C19.257 15.6308 19.126 16.3167 18.8647 16.9568C18.6033 17.5969 18.2169 18.1785 17.728 18.6674C17.239 19.1563 16.6575 19.5428 16.0174 19.8041C15.3772 20.0655 14.6914 20.1965 14 20.1895ZM14 11.4395C13.5374 11.4287 13.0775 11.5118 12.648 11.6839C12.2185 11.856 11.8283 12.1134 11.5011 12.4406C11.174 12.7678 10.9165 13.1579 10.7445 13.5874C10.5724 14.0169 10.4892 14.4769 10.5 14.9395C10.4892 15.402 10.5724 15.862 10.7445 16.2915C10.9165 16.721 11.174 17.1111 11.5011 17.4383C11.8283 17.7655 12.2185 18.0229 12.648 18.195C13.0775 18.3671 13.5374 18.4502 14 18.4395C14.4626 18.4502 14.9225 18.3671 15.352 18.195C15.7815 18.0229 16.1717 17.7655 16.4989 17.4383C16.826 17.1111 17.0835 16.721 17.2555 16.2915C17.4276 15.862 17.5108 15.402 17.5 14.9395C17.5108 14.4769 17.4276 14.0169 17.2555 13.5874C17.0835 13.1579 16.826 12.7678 16.4989 12.4406C16.1717 12.1134 15.7815 11.856 15.352 11.6839C14.9225 11.5118 14.4626 11.4287 14 11.4395Z" fill="#893D5F"/>
</svg>
