<svg width="20" height="20" viewBox="0 0 20 20" fill="none" xmlns="http://www.w3.org/2000/svg">
<path d="M17.5 5H10L7.86875 2.86875C7.75246 2.75177 7.61418 2.65896 7.46185 2.59567C7.30953 2.53239 7.14619 2.49987 6.98125 2.5H2.5C2.16848 2.5 1.85054 2.6317 1.61612 2.86612C1.3817 3.10054 1.25 3.41848 1.25 3.75V16.25C1.25 16.5815 1.3817 16.8995 1.61612 17.1339C1.85054 17.3683 2.16848 17.5 2.5 17.5H17.5C17.8315 17.5 18.1495 17.3683 18.3839 17.1339C18.6183 16.8995 18.75 16.5815 18.75 16.25V6.25C18.75 5.91848 18.6183 5.60054 18.3839 5.36612C18.1495 5.1317 17.8315 5 17.5 5ZM13.75 16.25H8.75V15.625C8.75 15.4592 8.81585 15.3003 8.93306 15.1831C9.05027 15.0658 9.20924 15 9.375 15H13.125C13.2908 15 13.4497 15.0658 13.5669 15.1831C13.6842 15.3003 13.75 15.4592 13.75 15.625V16.25ZM17.5 16.25H15V15.625C15 15.1277 14.8025 14.6508 14.4508 14.2992C14.0992 13.9475 13.6223 13.75 13.125 13.75H9.375C8.87772 13.75 8.40081 13.9475 8.04917 14.2992C7.69754 14.6508 7.5 15.1277 7.5 15.625V16.25H2.5V3.75H6.98125L9.11875 5.88125L9.48125 6.25H17.5V16.25Z" fill="#757C86"/>
<path d="M8.75 10.625C8.75 11.1195 8.89662 11.6028 9.17133 12.0139C9.44603 12.425 9.83648 12.7455 10.2933 12.9347C10.7501 13.1239 11.2528 13.1734 11.7377 13.077C12.2227 12.9805 12.6681 12.7424 13.0178 12.3928C13.3674 12.0431 13.6055 11.5977 13.702 11.1127C13.7984 10.6278 13.7489 10.1251 13.5597 9.66829C13.3705 9.21148 13.05 8.82103 12.6389 8.54633C12.2278 8.27162 11.7445 8.125 11.25 8.125C10.587 8.125 9.95107 8.38839 9.48223 8.85723C9.01339 9.32607 8.75 9.96196 8.75 10.625ZM11.25 9.375C11.4972 9.375 11.7389 9.44831 11.9445 9.58566C12.15 9.72301 12.3102 9.91824 12.4048 10.1466C12.4995 10.3751 12.5242 10.6264 12.476 10.8689C12.4278 11.1113 12.3087 11.3341 12.1339 11.5089C11.9591 11.6837 11.7363 11.8028 11.4939 11.851C11.2514 11.8992 11.0001 11.8745 10.7716 11.7798C10.5432 11.6852 10.348 11.525 10.2107 11.3195C10.0733 11.1139 10 10.8722 10 10.625C10 10.2935 10.1317 9.97554 10.3661 9.74112C10.6005 9.5067 10.9185 9.375 11.25 9.375Z" fill="#757C86"/>
</svg>
