<svg width="24" height="25" viewBox="0 0 24 25" fill="none" xmlns="http://www.w3.org/2000/svg">
<mask id="path-1-inside-1_779_4527" fill="white">
<path d="M23.97 12.5201C23.97 19.0813 18.6511 24.4001 12.09 24.4001C5.52882 24.4001 0.209961 19.0813 0.209961 12.5201C0.209961 5.95899 5.52882 0.640137 12.09 0.640137C18.6511 0.640137 23.97 5.95899 23.97 12.5201ZM1.89474 12.5201C1.89474 18.1508 6.45929 22.7154 12.09 22.7154C17.7206 22.7154 22.2852 18.1508 22.2852 12.5201C22.2852 6.88947 17.7206 2.32491 12.09 2.32491C6.45929 2.32491 1.89474 6.88947 1.89474 12.5201Z"/>
</mask>
<path d="M23.97 12.5201C23.97 19.0813 18.6511 24.4001 12.09 24.4001C5.52882 24.4001 0.209961 19.0813 0.209961 12.5201C0.209961 5.95899 5.52882 0.640137 12.09 0.640137C18.6511 0.640137 23.97 5.95899 23.97 12.5201ZM1.89474 12.5201C1.89474 18.1508 6.45929 22.7154 12.09 22.7154C17.7206 22.7154 22.2852 18.1508 22.2852 12.5201C22.2852 6.88947 17.7206 2.32491 12.09 2.32491C6.45929 2.32491 1.89474 6.88947 1.89474 12.5201Z" fill="#D9D9D9" stroke="#C49EEB" stroke-width="2.64" mask="url(#path-1-inside-1_779_4527)"/>
</svg>
