<svg width="21" height="20" viewBox="0 0 21 20" fill="none" xmlns="http://www.w3.org/2000/svg">
<path d="M11.9392 10C11.7168 10 11.4968 10.0446 11.2919 10.1311C11.0871 10.2177 10.9017 10.3444 10.7467 10.5037L10.5011 10.7569L10.2529 10.5037C10.0979 10.3444 9.9125 10.2177 9.70768 10.1312C9.50286 10.0447 9.28278 10.0002 9.06044 10.0002C8.83811 10.0002 8.61803 10.0447 8.41321 10.1312C8.20839 10.2177 8.02298 10.3444 7.86794 10.5037C7.55178 10.8302 7.375 11.2668 7.375 11.7212C7.375 12.1757 7.55178 12.6123 7.86794 12.9387L10.5011 15.625L13.1317 12.9387C13.4479 12.6123 13.6246 12.1757 13.6246 11.7212C13.6246 11.2668 13.4479 10.8302 13.1317 10.5037C12.9767 10.3444 12.7913 10.2177 12.5864 10.1311C12.3816 10.0446 12.1615 10 11.9392 10Z" fill="#757C86"/>
<path d="M16.5625 5.81272L12.1875 1.43772C12.1325 1.37665 12.0649 1.32826 11.9894 1.29589C11.9138 1.26351 11.8322 1.24793 11.75 1.25022H5.5C5.16878 1.25121 4.85142 1.38322 4.61721 1.61743C4.383 1.85164 4.25099 2.169 4.25 2.50022V17.5002C4.25099 17.8314 4.383 18.1488 4.61721 18.383C4.85142 18.6172 5.16878 18.7492 5.5 18.7502H15.5C15.8312 18.7492 16.1486 18.6172 16.3828 18.383C16.617 18.1488 16.749 17.8314 16.75 17.5002V6.25022C16.7523 6.16807 16.7367 6.0864 16.7043 6.01086C16.672 5.93532 16.6236 5.86772 16.5625 5.81272ZM11.75 2.75022L15.25 6.25022H11.75V2.75022ZM15.5 17.5002H5.5V2.50022H10.5V6.25022C10.501 6.58144 10.633 6.8988 10.8672 7.13301C11.1014 7.36722 11.4188 7.49923 11.75 7.50022H15.5V17.5002Z" fill="#757C86"/>
</svg>
